<?xml version="1.0" encoding="utf-8"?>
<!-- Generator: Adobe Illustrator 24.1.2, SVG Export Plug-In . SVG Version: 6.00 Build 0)  -->
<svg version="1.1" id="Слой_1" xmlns="http://www.w3.org/2000/svg" xmlns:xlink="http://www.w3.org/1999/xlink" x="0px" y="0px"
	 viewBox="0 0 108 108" style="enable-background:new 0 0 108 108;" xml:space="preserve">
<path d="M44.01,55.75L24.74,75.3c-2.11-3.89-3.33-8.34-3.36-13.07c-0.02-2.17,0.22-4.29,0.67-6.32L44.01,55.75z"/>
<path d="M41.1,61.28l0.2,27.44c-6.52-1.93-12.04-6.19-15.6-11.81L41.1,61.28z"/>
<path d="M49.99,53.9l-27.46,0.2c1.93-6.52,6.2-12.05,11.83-15.61L49.99,53.9z"/>
<path d="M42.94,67.26l19.53,19.26c-3.88,2.11-8.33,3.32-13.06,3.35c-2.17,0.02-4.29-0.22-6.32-0.67L42.94,67.26z"/>
<path d="M55.52,56.82L35.97,37.54c3.88-2.11,8.33-3.32,13.06-3.35c2.18-0.02,4.3,0.22,6.34,0.68L55.52,56.82z"/>
<g>
	<path d="M67.51,41.05c-2.96-2.59-6.47-4.56-10.34-5.71l0.2,27.46l10.14-10.29V41.05z"/>
</g>
<path d="M74.39,23.04c0.15-2.93,2.56-5.13,5.53-5.03c3.04,0.09,5.38,2.65,5.2,5.68c-0.17,2.9-2.66,5.16-5.56,5.06
	C76.51,28.64,74.23,26.12,74.39,23.04z"/>
<rect x="69.28" y="34.19" width="13.53" height="55.81"/>
<polygon points="72.89,30.54 72.89,32.44 84.64,32.44 84.64,84.68 86.62,84.68 86.62,30.54 "/>
<g>
	<polygon points="67.51,54.99 54.45,68.24 67.51,68.14 	"/>
</g>
<g>
	<path d="M67.51,70.04l-19.04,0.14l15.61,15.39c1.21-0.77,2.35-1.63,3.43-2.56V70.04z"/>
</g>
</svg>
